<svg width="20" height="20" viewBox="0 0 20 20" fill="none" xmlns="http://www.w3.org/2000/svg">
<path d="M17.2882 2.77374C16.9628 2.4483 16.4351 2.4483 16.1097 2.77374L10.031 8.8524L3.95237 2.77374C3.62694 2.4483 3.0993 2.4483 2.77387 2.77374C2.44842 3.09918 2.44842 3.62682 2.77387 3.95225L8.8525 10.0309L2.77388 16.1095C2.44844 16.435 2.44844 16.9626 2.77388 17.2881C3.09932 17.6135 3.62696 17.6135 3.95239 17.2881L10.031 11.2094L16.1097 17.2881C16.4351 17.6135 16.9628 17.6135 17.2882 17.2881C17.6136 16.9626 17.6136 16.435 17.2882 16.1096L11.2095 10.0309L17.2882 3.95225C17.6136 3.62682 17.6136 3.09918 17.2882 2.77374Z" fill="black"/>
</svg>
