<svg width="20" height="20" viewBox="0 0 20 20" fill="none" xmlns="http://www.w3.org/2000/svg">
<path d="M14.8965 9.99987C14.8965 10.1042 14.8549 10.2043 14.7811 10.2782C14.7072 10.3519 14.6072 10.3934 14.5028 10.3934H6.45747L8.00821 11.9441C8.12036 12.057 8.15363 12.2261 8.09243 12.373C8.0314 12.5198 7.88781 12.6153 7.72882 12.6152C7.62139 12.6179 7.51764 12.5767 7.44149 12.5011L5.21966 10.2792C5.2015 10.2603 5.18502 10.2399 5.17037 10.2182C5.17037 10.2064 5.15862 10.1945 5.15069 10.1828C5.14428 10.1729 5.13909 10.1623 5.13497 10.1514C5.12795 10.1355 5.12261 10.119 5.11926 10.1021V10.0784V10.0786C5.10934 10.0265 5.10934 9.97313 5.11926 9.9211V9.90722C5.12338 9.88708 5.12917 9.86739 5.13696 9.84832C5.13619 9.84176 5.13619 9.83504 5.13696 9.82864C5.14428 9.81216 5.15282 9.79644 5.16259 9.78133L5.18029 9.75967C5.19006 9.74792 5.19997 9.73403 5.21172 9.72228L7.44149 7.50045C7.51366 7.42049 7.61544 7.37349 7.72317 7.37075C7.83089 7.36785 7.93511 7.40935 8.0114 7.48534C8.0877 7.56148 8.1295 7.6654 8.12706 7.77312C8.12462 7.88085 8.07808 7.98293 7.99843 8.05541L6.45745 9.60615H14.5028C14.6071 9.60615 14.7072 9.64766 14.7811 9.72151C14.8549 9.79521 14.8964 9.89531 14.8964 9.99983L14.8965 9.99987Z" fill="#298DFF" stroke="#298DFF" stroke-width="0.390625"/>
</svg>
