<svg width="36" height="40" viewBox="0 0 36 40" fill="none" xmlns="http://www.w3.org/2000/svg">
<path d="M33.9123 33.9164C31.8018 22.0555 25.2661 14.5555 15.475 12.7242V5.92275C15.475 5.59041 15.296 5.29073 15.0212 5.16347C14.7467 5.03621 14.4307 5.1067 14.2203 5.34169L2.46919 18.4847C2.33112 18.6388 2.25391 18.8478 2.25391 19.066C2.25391 19.2842 2.3314 19.4933 2.46919 19.6474L14.2203 32.7786C14.4307 33.0133 14.7467 33.0835 15.0212 32.9562C15.2957 32.829 15.4747 32.5293 15.4747 32.197V25.3384C23.245 25.5109 28.6976 28.4516 32.5932 34.5541C32.7943 34.8693 33.1652 34.9847 33.483 34.8309C33.8006 34.677 33.9793 34.2959 33.9117 33.9159L33.9123 33.9164ZM14.7401 23.6875C14.3341 23.6875 14.0053 24.0556 14.0051 24.5094V30.2149L4.02815 19.0665L14.0051 7.90712V13.4284C14.0051 13.8373 14.2741 14.184 14.6359 14.242C25.0711 15.9122 29.6827 23.531 31.6832 30.7482C27.5587 25.9472 22.0912 23.6874 14.74 23.6874L14.7401 23.6875Z" fill="black" stroke="black" stroke-width="0.390625"/>
</svg>
