<svg width="37" height="40" viewBox="0 0 37 40" fill="none" xmlns="http://www.w3.org/2000/svg">
<g clip-path="url(#clip0_6_2)">
<mask id="mask0_6_2" style="mask-type:luminance" maskUnits="userSpaceOnUse" x="0" y="0" width="36" height="40">
<path d="M0.566895 0.319519H35.7589V39.6797H0.566895V0.319519Z" fill="white"/>
</mask>
<g mask="url(#mask0_6_2)">
<path d="M34.8798 37.7117H18.7455L34.4705 20.1242C36.1865 18.2053 36.1865 15.0821 34.4705 13.1625L24.2756 1.76098C23.4446 0.831446 22.3391 0.319336 21.1634 0.319336C19.9877 0.319336 18.8826 0.831117 18.0514 1.76098L1.85562 19.875C0.139923 21.7943 0.139923 24.9171 1.85562 26.8367L12.0505 38.239C12.8816 39.1686 13.9867 39.6807 15.1624 39.6807C15.1646 39.6807 15.1665 39.6804 15.1687 39.6804C15.1698 39.6804 15.1704 39.6807 15.1714 39.6807H34.8787C35.3647 39.6807 35.7584 39.2403 35.7584 38.6968C35.7587 38.1529 35.3652 37.712 34.8793 37.712L34.8798 37.7117ZM19.2959 3.15309C19.795 2.59523 20.4583 2.28793 21.1636 2.28793C21.869 2.28793 22.5328 2.59494 23.0319 3.15309L33.2267 14.5554C34.2565 15.7075 34.2565 17.5818 33.2267 18.7339L23.1129 30.0456L9.18237 14.4651L19.2959 3.15309ZM3.1008 25.4453C2.07104 24.2932 2.07104 22.4189 3.1008 21.2668L7.93831 15.8564L21.8688 31.4361L17.031 36.8471C16.532 37.4047 15.8686 37.712 15.1631 37.712C14.4574 37.712 13.7941 37.4047 13.2951 36.8468L3.1008 25.4453Z" fill="black" stroke="black" stroke-width="0.390625"/>
</g>
</g>
<defs>
<clipPath id="clip0_6_2">
<rect width="35.7641" height="40" fill="white" transform="translate(0.28125)"/>
</clipPath>
</defs>
</svg>
