<svg width="36" height="40" viewBox="0 0 36 40" fill="none" xmlns="http://www.w3.org/2000/svg">
<path d="M22.0534 35.8961H13.8318C13.5281 35.8961 13.2817 36.1716 13.2817 36.5113C13.2817 36.851 13.5281 37.1262 13.8318 37.1262H22.0534C22.3571 37.1262 22.6032 36.851 22.6032 36.5113C22.6032 36.1716 22.3571 35.8961 22.0534 35.8961Z" fill="black" stroke="black" stroke-width="0.390625"/>
<mask id="mask0_6_21" style="mask-type:luminance" maskUnits="userSpaceOnUse" x="13" y="38" width="10" height="2">
<path d="M13.2627 38.4375H22.6228V39.6798H13.2627V38.4375Z" fill="white"/>
</mask>
<g mask="url(#mask0_6_21)">
<path d="M22.0539 38.45H13.8323C13.5286 38.45 13.2822 38.7253 13.2822 39.0649C13.2822 39.4046 13.5286 39.6799 13.8323 39.6799H22.0539C22.3576 39.6799 22.6037 39.4046 22.6037 39.0649C22.6037 38.7253 22.3576 38.45 22.0539 38.45Z" fill="black" stroke="black" stroke-width="0.390625"/>
</g>
<path d="M4.15175 10.2523L7.02825 12.1276C7.15431 12.2134 7.30602 12.239 7.44926 12.1984C7.59224 12.1582 7.71476 12.055 7.78925 11.9122C7.86374 11.7697 7.88366 11.5997 7.84491 11.4404C7.80589 11.2811 7.71148 11.1459 7.58269 11.0653L4.7062 9.18968C4.58014 9.10728 4.43007 9.0847 4.289 9.1262C4.14793 9.16771 4.02732 9.26994 3.95392 9.41093C3.80085 9.70451 3.88954 10.0811 4.15175 10.2523Z" fill="black" stroke="black" stroke-width="0.390625"/>
<path d="M28.6857 12.2125C28.7823 12.2119 28.8773 12.1832 28.9608 12.1288L31.8383 10.2532V10.2529C32.1005 10.082 32.1895 9.70543 32.0364 9.41182C31.8836 9.11855 31.5469 9.01907 31.2844 9.19027L28.4063 11.0665H28.4066C28.1926 11.2066 28.089 11.4892 28.1531 11.7568C28.2175 12.0245 28.4336 12.2109 28.6813 12.2124L28.6857 12.2125Z" fill="black" stroke="black" stroke-width="0.390625"/>
<mask id="mask1_6_21" style="mask-type:luminance" maskUnits="userSpaceOnUse" x="17" y="0" width="2" height="6">
<path d="M17.3838 0.319519H18.5713V5.31218H17.3838V0.319519Z" fill="white"/>
</mask>
<g mask="url(#mask1_6_21)">
<path d="M17.9981 5.24371C18.144 5.24371 18.2837 5.17901 18.3869 5.06365C18.49 4.9483 18.5479 4.79174 18.5479 4.62878V0.934326C18.5479 0.594662 18.3017 0.319397 17.9981 0.319397C17.6944 0.319397 17.4482 0.594662 17.4482 0.934326V4.62878C17.4482 4.79174 17.5061 4.9483 17.6092 5.06365C17.7124 5.17901 17.8523 5.24371 17.9981 5.24371Z" fill="black" stroke="black" stroke-width="0.390625"/>
</g>
<path d="M31.7665 26.8312L28.962 25.0035C28.836 24.9211 28.6859 24.8982 28.5448 24.9397C28.4038 24.9812 28.2834 25.0838 28.2098 25.2248C28.0567 25.5183 28.1454 25.8949 28.4079 26.0662L31.2123 27.8933H31.212C31.3381 27.9793 31.4898 28.0047 31.633 27.9644C31.776 27.9238 31.8985 27.8206 31.973 27.6781C32.0475 27.5356 32.0674 27.3653 32.0287 27.206C31.9896 27.047 31.8952 26.9118 31.7665 26.8312Z" fill="black" stroke="black" stroke-width="0.390625"/>
<path d="M11.3447 6.77735C11.4151 6.92383 11.5357 7.03217 11.6787 7.07764C11.8217 7.12281 11.9753 7.10175 12.1038 7.01844C12.2326 6.93513 12.3259 6.79719 12.3622 6.63606C12.3985 6.47462 12.3748 6.30372 12.2964 6.16242L10.6601 2.95867C10.5897 2.8131 10.4696 2.70538 10.3272 2.65991C10.1848 2.61444 10.032 2.63519 9.90346 2.71728C9.77495 2.79938 9.68135 2.93609 9.64425 3.09631C9.60687 3.25684 9.62897 3.42713 9.70537 3.56903L11.3447 6.77735Z" fill="black" stroke="black" stroke-width="0.390625"/>
<path d="M33.5645 17.9617H30.3398C30.0362 17.9617 29.79 18.237 29.79 18.5767C29.79 18.9163 30.0362 19.1919 30.3398 19.1919H33.5645C33.8682 19.1919 34.1143 18.9163 34.1143 18.5767C34.1143 18.237 33.8682 17.9617 33.5645 17.9617Z" fill="black" stroke="black" stroke-width="0.390625"/>
<path d="M23.9004 7.03359C24.027 7.11477 24.177 7.13644 24.3178 7.09341C24.4586 7.05068 24.5784 6.94723 24.651 6.80562L26.2759 3.63086C26.4268 3.33606 26.3354 2.96009 26.0718 2.79133C25.8082 2.62256 25.472 2.7248 25.3212 3.0196L23.6963 6.19437C23.6237 6.33566 23.6046 6.50381 23.6428 6.66129C23.681 6.81877 23.7737 6.95273 23.9004 7.03359Z" fill="black" stroke="black" stroke-width="0.390625"/>
<path d="M7.02897 25.0039L4.22456 26.8316C4.01037 26.9714 3.90614 27.2543 3.97053 27.5223C4.03466 27.7902 4.25158 27.977 4.49961 27.9779C4.59647 27.9776 4.69115 27.9486 4.77465 27.8937L7.57905 26.0665H7.57878C7.84127 25.8953 7.92995 25.5188 7.77687 25.2251C7.6238 24.9316 7.28709 24.8327 7.02457 25.0039L7.02897 25.0039Z" fill="black" stroke="black" stroke-width="0.390625"/>
<path d="M6.20344 18.5734C6.20344 18.4105 6.1456 18.2539 6.04246 18.1386C5.93931 18.0232 5.79961 17.9585 5.65363 17.9585H2.32205C2.01836 17.9585 1.77197 18.2338 1.77197 18.5734C1.77197 18.9131 2.01836 19.1887 2.32205 19.1887H5.65363C5.79961 19.1887 5.93931 19.1237 6.04246 19.0083C6.1456 18.8929 6.20344 18.7367 6.20344 18.5734Z" fill="black" stroke="black" stroke-width="0.390625"/>
<path d="M17.9701 7.70859C14.9002 7.75223 12.008 9.32632 10.0825 12.0009C8.15745 14.6757 7.40004 18.1718 8.01753 21.536C8.63473 24.8997 10.5625 27.7793 13.2742 29.3891L13.2818 34.1099C13.2818 34.2732 13.3399 34.4294 13.4431 34.5448C13.5462 34.6602 13.6859 34.7248 13.8319 34.7248H22.0534C22.1991 34.7248 22.3391 34.6601 22.4422 34.5448C22.5451 34.4294 22.6032 34.2732 22.6032 34.1099V29.3885C25.3316 27.8001 27.28 24.9277 27.9128 21.5604C28.5456 18.1937 27.796 14.6872 25.8705 12.0041C23.9449 9.32109 21.0458 7.74476 17.9695 7.70789L17.9701 7.70859ZM21.8193 28.45C21.627 28.5516 21.5042 28.7686 21.5042 29.0066V33.4961H14.3807L14.3736 29.0066C14.3725 28.7695 14.25 28.5544 14.0585 28.453C12.0631 27.4225 10.4665 25.6223 9.56091 23.3823C8.65528 21.1426 8.50168 18.6127 9.12761 16.2564C9.75355 13.8998 11.1175 11.8747 12.97 10.5512C14.8222 9.2279 17.0386 8.69508 19.2136 9.05031C21.3883 9.40554 23.376 10.625 24.8123 12.4857C26.2489 14.346 27.038 16.7231 27.0356 19.1813C27.0364 21.1195 26.5471 23.0182 25.6238 24.6582C24.7007 26.2985 23.3817 27.6129 21.8188 28.45L21.8193 28.45Z" fill="black" stroke="black" stroke-width="0.390625"/>
<path d="M14.9735 18.8133C14.7751 18.5563 14.4277 18.5276 14.198 18.7498C13.9679 18.9717 13.9426 19.3602 14.1409 19.6172L16.6471 22.8606V32.3317H16.6474C16.6474 32.6714 16.8935 32.9466 17.1972 32.9466C17.5009 32.9466 17.747 32.6714 17.747 32.3317V22.6317C17.747 22.484 17.6993 22.3412 17.6128 22.2295L14.9735 18.8133Z" fill="black" stroke="black" stroke-width="0.390625"/>
<path d="M21.2228 18.8133L18.5834 22.2297H18.5831C18.4969 22.3414 18.4494 22.4842 18.4497 22.6319V32.3327C18.4497 32.6723 18.6958 32.9476 18.9995 32.9476C19.3032 32.9476 19.5493 32.6723 19.5493 32.3327V22.8616L22.0561 19.6181H22.0564C22.2547 19.3612 22.2294 18.9727 21.9993 18.7508C21.7696 18.5286 21.4222 18.5573 21.2238 18.8143L21.2228 18.8133Z" fill="black" stroke="black" stroke-width="0.390625"/>
</svg>
