<svg width="36" height="40" viewBox="0 0 36 40" fill="none" xmlns="http://www.w3.org/2000/svg">
<path d="M32.6302 3.65546C31.9076 2.84889 30.9289 2.39569 29.9081 2.39569C28.8876 2.39569 27.9086 2.84888 27.1863 3.65546L4.14643 29.4242L1.87842 38.0492L9.59075 35.5123L32.6306 9.7435C33.3515 8.93569 33.7562 7.841 33.7562 6.69968C33.7559 5.55835 33.351 4.46335 32.6301 3.65585L32.6302 3.65546ZM5.8015 33.6609C5.41322 33.2248 4.95455 32.8751 4.45001 32.6298L5.02083 30.46L8.0482 31.1314L8.66187 34.5353L6.72348 35.1731L6.72375 35.1734C6.50438 34.6085 6.19141 34.0955 5.8015 33.6609ZM8.34808 29.9433L5.75372 29.3677L24.0758 8.87318L25.6309 10.613L8.34808 29.9433ZM4.13491 33.8282C4.79959 34.1825 5.33552 34.7816 5.65202 35.525L3.50247 36.2324L4.13491 33.8282ZM9.63685 33.7199L9.11459 30.8249L26.4085 11.4827L27.9641 13.222L9.63685 33.7199ZM28.742 12.3527L24.8538 8.00392L26.0199 6.69962L29.9082 11.0484L28.742 12.3527ZM31.8526 8.87368L30.6864 10.1786L26.7976 5.82954L27.9643 4.52525V4.52494C28.6598 3.75376 29.6697 3.45471 30.6154 3.73971C31.5611 4.02474 32.2998 4.85088 32.5546 5.90861C32.8095 6.96635 32.5421 8.09579 31.8526 8.87368Z" fill="black" stroke="black" stroke-width="0.390625"/>
</svg>
